<?xml version="1.0" encoding="UTF-8" standalone="no"?>
<!-- Created with Inkscape (http://www.inkscape.org/) -->

<svg
   width="223.679mm"
   height="38.062mm"
   viewBox="0 0 223.67899 38.062001"
   version="1.1"
   id="svg1"
   inkscape:version="1.4 (86a8ad7, 2024-10-11)"
   sodipodi:docname="header.svg"
   xmlns:inkscape="http://www.inkscape.org/namespaces/inkscape"
   xmlns:sodipodi="http://sodipodi.sourceforge.net/DTD/sodipodi-0.dtd"
   xmlns="http://www.w3.org/2000/svg"
   xmlns:svg="http://www.w3.org/2000/svg">
  <sodipodi:namedview
     id="namedview1"
     pagecolor="#ffffff"
     bordercolor="#999999"
     borderopacity="1"
     inkscape:showpageshadow="2"
     inkscape:pageopacity="0"
     inkscape:pagecheckerboard="0"
     inkscape:deskcolor="#d1d1d1"
     inkscape:document-units="mm"
     inkscape:zoom="0.53802047"
     inkscape:cx="397.75438"
     inkscape:cy="560.3876"
     inkscape:window-width="1920"
     inkscape:window-height="1017"
     inkscape:window-x="-8"
     inkscape:window-y="-8"
     inkscape:window-maximized="1"
     inkscape:current-layer="layer1" />
  <defs
     id="defs1" />
  <g
     inkscape:label="Ebene 1"
     inkscape:groupmode="layer"
     id="layer1">
    <path
       id="path6"
       style="mix-blend-mode:normal;fill:#ffffff;fill-opacity:1;stroke-width:0.498539"
       d="M 5.39192,3.2e-4 0,5.32661 v 9.71052 c 1.45093,1.08412 3.37283,2.86789 7.009392,6.36137 4.40439,4.23107 7.94891,7.47194 8.63203,7.92768 l -0.0496,-5.2e-4 -8.60877,8.50336 -0.23565,0.23254 h 5.59036 c 4.37843,-4.30502 8.48888,-8.3823 8.48888,-8.47131 0,-0.0755 -0.72333,-0.13901 -1.62574,-0.1819 0.69879,-0.21548 1.42915,-0.59543 2.14871,-1.26763 2.01539,-1.88263 1.38987,-3.08453 -0.73536,-1.41283 l -1.38027,1.08572 -9.0501,-9.07955 L 1.13431,9.65451 10.980732,0.01583 c 0.009,-0.008 0.007,-0.007 0.0155,-0.0155 z m 11.726932,0 c -0.28592,0.32667 -1.27744,1.33631 -1.27744,1.3777 0,0.14817 0.47418,0.14587 1.05368,-0.006 0.93676,-0.24499 0.99148,-0.16023 0.49558,0.76636 -0.59591,1.11343 -1.41388,1.75907 -2.42208,1.91202 -0.74401,0.11287 -0.83067,-0.62708 -0.12454,-1.0635 0.2742,-0.16945 0.49868,-0.53996 0.49868,-0.82372 0,-0.28377 -1.91879,1.22587 -4.26382,3.35483 l -4.26331,3.87057 3.12746,3.15588 c 1.72016,1.73556 3.27605,3.15536 3.45767,3.15536 0.18157,0 0.45366,-0.47229 0.60462,-1.04955 0.33975,-1.29919 1.21427,-1.04993 2.53834,0.72347 0.86716,1.1615 0.91974,1.50431 0.3669,2.38952 -0.56,0.89672 -0.4969,1.19117 0.47594,2.22674 1.24416,1.32432 2.05732,1.56955 1.64538,0.49609 -0.34738,-0.90554 0.72568,-1.56772 1.418,-0.8754 0.3792,0.37919 0.35514,0.74913 -0.0842,1.27848 -0.64466,0.77682 -0.30069,2.78742 0.47698,2.78742 0.24607,0 0.70943,-0.48947 1.02939,-1.08727 0.56066,-1.04758 0.60624,-1.05304 1.25987,-0.15916 0.58035,0.79372 0.55982,1.05796 -0.14107,1.83244 -0.76676,0.84727 -0.73033,0.98733 0.5736,2.19574 l 1.39268,1.29087 3.3228,-3.40754 c 1.82739,-1.87406 5.83177,-6.00447 8.89868,-9.17877 l 5.5764,-5.77122 -7.34994,-7.35821 C 34.583492,1.21094 34.129882,0.71748 33.429002,0 h -4.95681 l 2.83859,2.91714 6.3748,6.55102 -3.07009,3.24735 c -1.68856,1.78596 -4.19535,4.47818 -5.57072,5.98258 -2.99338,3.2741 -4.72198,4.79825 -4.74442,4.1832 -0.009,-0.24817 -1.57987,-2.10813 -3.49022,-4.1336 -1.9104,-2.02541 -3.47317,-3.76726 -3.47317,-3.87056 0,-0.1033 0.25975,-0.60372 0.57722,-1.11208 0.67697,-1.08397 0.19898,-2.73074 -0.70228,-2.42 -0.3426,0.1181 -0.61404,0.81017 -0.60307,1.53789 0.0195,1.30766 -0.005,1.29856 -2.11873,-0.77567 -1.1762,-1.15436 -2.13837,-2.24766 -2.13837,-2.42982 0,-0.18212 1.92883,-2.23437 4.28656,-4.56045 3.73915,-3.68904 4.15183,-4.24566 3.6866,-5.117 z m 18.79782,0 c 0.51818,0.65765 1.23829,1.44859 2.54351,2.77348 1.06129,1.07729 2.12719,1.95853 2.36833,1.95853 1.12456,0 0.17206,-1.53893 -2.73626,-4.42143 -0.14013,-0.1389 -0.20323,-0.18382 -0.33332,-0.31058 z m 2.56677,0 c 1.03099,1.01402 1.90772,1.77128 2.0531,1.62988 0.19904,-0.19359 -0.15573,-0.86901 -0.67644,-1.62988 z m 3.59254,0 c 1.42447,1.46144 2.87484,3.18478 3.17449,3.97289 0.46229,1.21593 0.42978,1.25357 -0.60513,0.6997 -0.60164,-0.32201 -1.47649,-1.05735 -1.94407,-1.63401 -0.46758,-0.57671 -1.0168,-0.88209 -1.2206,-0.67903 -0.20385,0.2031 1.21101,1.83788 3.14399,3.63337 l 3.51452,3.26492 -9.66814,9.60406 c -5.31732,5.28217 -9.66763,9.78762 -9.66763,10.01231 0,0.22464 0.34751,0.1197 0.77256,-0.23306 0.63843,-0.5298 0.91714,-0.49724 1.60249,0.1881 0.45626,0.45626 0.99179,0.82992 1.19011,0.82992 0.19831,0 4.85471,-4.51029 10.34717,-10.02264 9.83248,-9.86813 9.97273,-10.03878 9.12916,-11.09235 -0.41257,-0.51526 -4.38306,-4.49089 -8.48011,-8.54418 z m 7.11895,0 c 4.0357,4.01066 7.76724,7.64892 7.8419,7.57422 0.0846,-0.0846 -0.43717,-0.9837 -1.15911,-1.99833 -0.72193,-1.01463 -1.13336,-2.01237 -0.91415,-2.21692 0.21921,-0.2045 0.50956,-0.0596 0.64492,0.32194 0.13535,0.38159 1.00209,1.53068 1.92598,2.55334 1.63092,1.80521 2.18992,2.86 1.18701,2.24017 -0.27669,-0.171 -0.36966,0.0171 -0.21187,0.4284 0.18276,0.4762 -1.17072,2.09913 -3.86747,4.63744 -4.84405,4.55954 -15.04486,15.01584 -15.2864,15.66933 -0.0914,0.24727 0.86046,0.44958 2.11563,0.44958 2.16789,0 2.50399,-0.20573 6.7138,-4.11292 2.43741,-2.26212 6.05052,-5.85124 8.02897,-7.97626 1.97845,-2.12502 3.77203,-3.86385 3.9858,-3.86385 0.21377,0 3.60252,3.13553 7.53081,6.96805 4.04918,3.95052 7.28367,6.74015 7.46828,6.44147 0.20305,-0.32859 1.16875,0.0676 2.56625,1.05265 1.32915,0.93685 2.69472,1.51092 3.356377,1.41076 0.93631,-0.14178 -0.489447,-1.76435 -8.873867,-10.09912 l -9.98958,-9.93066 1.25522,-1.49138 c 0.69038,-0.82045 2.4174,-2.51503 3.8375,-3.76566 1.42008,-1.25049 2.17459,-1.79753 1.6769,-1.21543 -0.54037,0.6319 -0.70548,1.18154 -0.4098,1.36425 0.43927,0.27151 1.37577,-1.49221 1.19166,-2.2443 -0.0142,-0.0578 1.59614,-1.56882 2.20658,-2.19677 h -6.10505 l -5.40174,5.23741 -2.00711,-1.87276 C 57.901812,2.8046 56.276722,1.24983 54.963572,3.2e-4 h -3.65146 c 0.38342,0.67323 0.86,1.47061 0.7767,1.55391 -0.14428,0.14428 -0.97229,-0.64712 -1.76785,-1.55391 z m 28.73054,0 c -1.09969,1.04677 -1.58206,1.42645 -2.89491,2.70165 l -6.89157,6.69416 3.62614,3.65094 c 1.9945,2.00787 3.71271,3.65042 3.81785,3.65042 0.10514,0 0.0567,-0.53494 -0.10749,-1.18907 -0.19139,-0.76252 -0.0234,-1.41766 0.46768,-1.82521 0.67168,-0.55742 0.54908,-0.85751 -0.99529,-2.43913 l -1.76113,-1.80351 3.60753,-3.5233 c 3.17061,-3.09613 3.98478,-3.95895 5.962417,-5.91695 h -0.92655 c -0.0441,0.25871 -0.14543,0.50658 -0.3359,0.66456 -0.41696,0.34576 -0.596797,0.14371 -0.654737,-0.66456 z m 11.273727,0 c -0.67559,0.63855 -1.23942,1.13913 -1.97714,1.86552 -5.30096,5.2196 -5.72535,5.53044 -6.11745,4.48655 -0.231717,-0.61694 -0.666087,-1.12138 -0.965317,-1.12138 -0.29922,0 -0.41212,0.21292 -0.25114,0.47336 0.16097,0.26043 -0.16851,0.72044 -0.73226,1.02216 -0.56375,0.30171 -0.89317,0.76201 -0.73174,1.02319 0.18331,0.29678 0.65651,0.28078 1.26039,-0.0424 1.15561,-0.61849 1.25675,-0.13343 0.21291,1.02009 -0.68624,0.75823 -0.40376,1.17662 3.148127,4.6638 2.14596,2.10687 4.39348,4.17513 4.99452,4.5961 1.06752,0.74776 1.0792,0.73552 0.50488,-0.52503 -0.43728,-0.95954 -0.44336,-1.43503 -0.0243,-1.85416 0.75075,-0.75075 2.10117,0.34341 2.10117,1.70223 0,0.65917 0.24109,0.89676 0.72243,0.7121 0.47006,-0.18042 0.63075,-0.0378 0.4594,0.40876 -0.14652,0.38173 -0.72373,0.59791 -1.30069,0.48679 -0.65703,-0.12653 0.3064,1.02857 2.62775,3.15175 2.01559,1.84354 4.12617,3.8334 4.69067,4.42143 v -5.2e-4 c 0.56454,0.58798 1.25887,1.09299 1.54254,1.1219 0.28367,0.029 3.648811,-2.96699 7.478091,-6.65747 3.82928,-3.69054 7.23096,-6.61856 7.55975,-6.50658 0.32893,0.11197 0.49272,-0.0712 0.3638,-0.40721 -0.12892,-0.33602 0.6377,-1.46273 1.70378,-2.50373 l 1.93838,-1.89239 -9.5157,-9.64489 h -4.71393 c 1.78469,1.76005 4.10377,4.07775 5.81154,5.84771 l 3.66334,3.79666 -7.15305,7.01301 -7.153571,7.01301 -3.1688,-3.23753 c -1.74294,-1.78053 -3.29782,-3.23753 -3.4556,-3.23753 -0.15774,0 -2.17597,-1.84362 -4.485,-4.09742 -3.75589,-3.6661 -4.26357,-4.0084 -4.81934,-3.24838 -0.68101,0.93132 -1.282,0.64836 -1.25109,-0.58911 0.0254,-1.01333 4.38496,-5.77415 4.85603,-5.30304 0.19563,0.19558 -0.43022,1.07579 -1.39061,1.95596 -1.5201,1.39306 -2.14041,3.30574 -1.07229,3.30574 0.19005,0 2.92166,-2.6325 6.07044,-5.84977 2.02659,-2.07069 2.40339,-2.50092 3.21944,-3.36931 z m 23.021861,0 c 3.6893,3.54682 8.81186,8.77887 8.81186,9.19944 0,0.25261 -0.21221,0.59043 -0.4718,0.75086 -0.79547,0.49166 -3.5123,4.75268 -3.03031,4.75268 0.24872,0 0.59071,-0.22448 0.76016,-0.49868 0.16945,-0.27419 0.47864,-0.49816 0.68678,-0.49816 0.20814,0 -2.88984,3.26048 -6.88433,7.24555 -6.88768,6.87142 -7.21294,7.28299 -6.29523,7.97626 h 5.2e-4 c 0.53229,0.40207 1.13592,0.73122 1.34152,0.73122 0.73674,0 0.96778,-0.99383 0.45423,-1.95337 -0.65552,-1.22486 0.0838,-1.78169 1.41801,-1.06763 0.78056,0.41773 1.22923,0.24916 2.37866,-0.89349 3.39759,-3.3776 5.65392,-5.9289 5.65392,-6.39289 0,-0.62716 2.41762,-1.76294 2.99413,-1.40663 0.23472,0.14508 0.58913,0.001 0.78755,-0.31988 0.22529,-0.36453 0.14447,-0.45004 -0.21497,-0.22789 -0.75812,0.46838 -0.7417,-0.33525 0.0222,-1.09916 0.46528,-0.46528 0.46528,-0.73102 0,-1.19631 -0.93601,-0.93596 -0.7275,-1.56428 1.1312,-3.41426 0.95101,-0.94648 1.73391,-1.9453 1.73891,-2.2195 0.007,-0.35723 -4.4954,-5.01752 -8.96896,-9.46816 z m 6.74945,0 0.60255,0.59325 c 4.4008,4.33285 8.53613,8.15861 9.18911,8.5018 1.47892,0.77733 1.28639,2.33724 -0.49145,3.98581 l -1.25522,1.16375 v -1.35185 c 0,-0.74358 0.39246,-1.79446 0.8723,-2.33578 1.98569,-2.24008 -1.1452,0.10891 -3.86333,2.89853 -2.16306,2.22016 -2.45209,2.68386 -1.36891,2.19883 0.75524,-0.33802 1.50861,-0.47939 1.67432,-0.31367 0.47052,0.47057 -3.67802,5.13461 -5.83944,6.56497 -1.40538,0.92998 -1.94407,1.63498 -1.94407,2.54352 0,1.08098 0.13282,1.18597 0.94878,0.7493 0.52177,-0.27923 1.69914,-1.35308 2.6169,-2.3859 0.91771,-1.03282 4.21311,-4.45411 7.32255,-7.60263 l 5.6534,-5.7242 -5.903,-5.69319 c -1.27724,-1.23182 -2.46425,-2.3926 -3.9088,-3.79254 z m 9.525,0 9.44026,9.46816 -1.39579,1.49603 c -0.76765,0.82259 -2.24489,2.28043 -3.283,3.24011 -1.70325,1.57464 -1.8024,1.61102 -1.01441,0.37156 0.71012,-1.11708 0.75654,-1.51422 0.24753,-2.12752 -0.53663,-0.64661 -1.21256,-0.13144 -4.74596,3.61683 -3.81672,4.04878 -4.9826,5.71345 -2.85977,4.08347 0.50038,-0.38417 0.39734,-0.13071 -0.2372,0.58395 -1.51516,1.70654 -1.41253,2.15574 0.2496,1.0945 1.34909,-0.86132 1.35906,-0.85952 0.62322,0.11317 -0.4113,0.54366 -0.86157,1.10056 -1.00046,1.23766 -1.53002,1.51027 -4.98212,5.69334 -4.98212,6.03684 0,0.24453 0.85175,0.44441 1.8929,0.44441 1.53191,0 2.2398,-0.35668 3.71089,-1.86965 1.72205,-1.77106 2.49209,-3.62093 2.43809,-5.85752 -0.0132,-0.5484 0.94647,-1.96563 2.13269,-3.14917 1.77909,-1.77509 2.21244,-2.0061 2.47582,-1.31981 0.2208,0.57536 -0.37371,1.515 -1.92805,3.04736 -1.98995,1.96175 -2.87755,3.66489 -1.91048,3.66489 0.18505,0 3.63028,-3.26757 7.65638,-7.26157 l 7.32048,-7.26209 -8.68319,-8.56692 C 134.0554,0.50535 134.10127,0.5517 133.54224,3.2e-4 h -1.00098 c 1.0829,1.43177 1.2374,2.23966 0.27957,2.23966 -0.39725,0 -1.5642,-1.04215 -2.73678,-2.23966 z m 6.60942,0 c 2.42858,2.26984 3.03243,2.45923 4.3987,1.72806 0.77323,-0.41384 1.17193,-0.26337 2.08566,0.78755 0.62143,0.71471 1.1404,1.56181 1.1529,1.88257 0.0125,0.32076 0.30764,0.52252 0.65577,0.44804 0.34813,-0.0745 1.86655,0.91836 3.37448,2.20658 l 2.74143,2.34249 -10.1229,10.13169 -10.12496,10.13219 h 2.86184 c 1.68202,0 2.86236,-0.21784 2.86236,-0.52813 0,-0.2904 -0.24672,-0.37554 -0.54829,-0.18914 -0.39428,0.24509 -0.39388,0.0542 0.005,-0.69039 0.76277,-1.42523 1.54306,-1.81564 1.54306,-0.77205 0,0.73874 0.20749,0.68278 1.37098,-0.36948 2.43881,-2.20569 3.51194,-2.82444 2.11873,-1.22164 l -1.24644,1.43403 1.69861,-0.95033 c 0.93431,-0.52272 2.95962,-2.10624 4.5005,-3.51865 1.54084,-1.41246 3.35627,-2.64633 4.03438,-2.74195 1.36764,-0.19289 1.456,-1.53767 0.1943,-2.95073 -0.60976,-0.6829 -0.50913,-0.9647 0.78652,-2.20607 l 1.48518,-1.42265 5.62446,5.44618 c 8.43037,8.1637 10.32227,10.09878 11.72797,10.54406 -1.0366,0.30789 -1.89201,1.0219 -4.00338,3.05615 -1.85082,1.78322 -3.36517,2.98101 -3.36517,2.66185 0,-0.94947 -0.95797,-0.66466 -2.30941,0.68678 -0.9201,0.9201 -1.1258,1.4379 -0.75035,1.89032 0.0502,0.0605 0.0238,0.1622 0.0336,0.24391 h 6.50555 c 4.3759,-4.3049 8.48579,-8.41182 8.48579,-8.57001 0,-0.0304 -0.194,-0.0433 -0.25425,-0.0693 0.0832,-0.0425 0.11926,-0.0885 0.0744,-0.13695 -0.19024,-0.20564 -4.6583,-4.70813 -9.92911,-10.0061 l -9.58339,-9.63301 9.84591,-9.61026 c 0.0187,-0.0183 0.0164,-0.0174 0.0351,-0.0357 h -5.90713 c -0.48433,0.60147 -1.11983,1.30518 -2.23088,2.38487 -1.89275,1.8393 -3.6266,3.3445 -3.85299,3.3445 -0.22643,0 -1.85712,-1.45836 -3.62355,-3.24063 -1.35653,-1.36871 -2.17538,-2.01589 -2.8112,-2.48874 h -0.67644 c 0.49139,0.59409 0.48935,0.89951 -0.016,1.50843 -0.5625,0.67777 -0.76739,0.63938 -1.8061,-0.33641 -0.46811,-0.43978 -0.77669,-0.83004 -0.96273,-1.17202 z m 34.32969,0 c -1.08789,1.04441 -1.01896,0.94278 -2.38435,2.25568 l -7.57577,7.28431 5.09168,5.07411 c 5.19149,5.17389 6.91558,6.44114 4.55838,3.3507 -2.09869,-2.75154 -0.91909,-3.06369 1.52859,-0.40463 2.37061,2.5753 2.63085,3.12539 1.48001,3.12539 -0.4113,0 -0.74776,0.15974 -0.74776,0.35502 0,0.46997 4.0934,4.63021 4.5558,4.63021 0.19797,0 0.16718,-0.67293 -0.0687,-1.49552 -0.36378,-1.26838 -0.29204,-1.49552 0.47232,-1.49552 0.49565,0 1.18398,0.34064 1.52962,0.75706 0.51224,0.6173 0.47713,0.92374 -0.18862,1.65933 -1.09534,1.21036 -1.02913,1.80018 0.30541,2.7311 1.39442,0.97271 1.39214,0.97221 1.09347,0.19379 -0.16407,-0.4275 0.28889,-0.6816 1.36065,-0.76326 0.88351,-0.0673 1.66567,-0.18102 1.73787,-0.25321 0.0722,-0.0722 -3.77675,-4.02424 -8.55296,-8.7819 -9.88569,-9.84734 -9.44851,-8.58269 -4.4881,-12.99042 1.61806,-1.43776 3.55172,-3.39247 5.44928,-5.23224 h -0.75809 c -0.13598,0.11443 -0.13948,0.14939 -0.29559,0.2775 -0.52257,0.4289 -1.36475,0.93842 -1.87121,1.13275 -0.78042,0.29948 -0.82436,0.23776 -0.29042,-0.40566 0.64929,-0.78236 0.1003,-1.04916 -0.79323,-0.3855 -0.0983,0.073 0.48017,-0.46983 0.62322,-0.61909 z m 11.22774,0 c -2.0899,2.14196 -3.20997,3.46709 -2.82412,3.70985 0.58952,0.37091 0.61055,0.69096 0.1173,1.77354 -0.72129,1.58306 -1.8917,1.37129 -1.69343,-0.30644 0.12069,-1.02161 -0.24786,-0.80654 -2.60191,1.51825 -3.09439,3.05595 -3.11229,2.88169 0.66301,6.36344 2.01834,1.86139 2.36041,2.01414 3.07113,1.37097 0.43986,-0.39813 1.10952,-0.72347 1.48776,-0.72347 0.37829,0 -0.27261,-0.97855 -1.44642,-2.17454 l -2.13424,-2.17455 4.22559,-3.68349 c 4.13537,-3.60494 5.443,-5.11633 4.17442,-4.82503 -0.34649,0.0796 -0.62295,-0.0798 -0.61495,-0.35398 0.008,-0.25875 0.5282,-0.4643 1.16117,-0.49455 z m 10.12444,0 c -1.02166,1.04544 -1.90948,2.00028 -2.89233,2.93884 -1.75072,1.67185 -4.01058,3.85025 -5.02191,4.84105 l -1.83865,1.80144 7.10138,7.33805 c 6.69788,6.92102 7.13354,7.27669 7.67705,6.26112 0.32086,-0.59954 0.87993,-0.96064 1.2609,-0.81442 0.42996,0.16452 0.58721,0.0104 0.42478,-0.4129 -0.32825,-0.85539 0.48575,-1.88047 6.15828,-7.75715 l 4.60179,-4.76766 -4.37338,-4.35323 -4.37338,-4.35322 -1.42626,1.48828 c -1.18779,1.23977 -1.32078,1.6159 -0.79582,2.24845 0.34671,0.41767 0.48344,1.14225 0.30386,1.61023 -0.30695,0.80006 -0.27064,0.80018 0.60668,0.006 1.30268,-1.17894 1.54983,-1.10342 3.87521,1.17874 l 2.06086,2.02262 -2.14871,2.27531 c -1.45353,1.53879 -2.40868,2.1752 -2.95175,1.96681 -0.7948,-0.30501 -2.22468,0.69795 -2.22468,1.56062 0,0.24598 0.56251,0.97512 1.24954,1.62058 l 1.24902,1.17357 -1.08676,1.15703 c -0.59774,0.63624 -1.279,1.15652 -1.5136,1.15652 -0.23463,0 -2.8635,-2.46033 -5.84202,-5.46736 -4.56961,-4.61328 -5.30109,-5.56211 -4.6824,-6.0756 0.40327,-0.33467 1.26632,-1.66013 1.91771,-2.94556 0.65139,-1.28543 1.53647,-2.4724 1.96681,-2.63756 0.63728,-0.24454 0.68776,-0.12356 0.27233,0.65267 -0.78869,1.47368 -0.60723,1.76001 0.48731,0.76946 0.5484,-0.4963 0.99684,-1.20421 0.99684,-1.57303 0,-0.36877 0.28047,-0.67945 0.62322,-0.69091 0.50366,-0.0165 1.84155,-1.09081 2.99723,-2.21899 z m 13.40797,0 c 0.905,0.88895 1.12761,1.02695 2.51044,2.41226 l 7.06004,7.07243 -4.26383,4.18528 c -2.87862,2.82527 -4.06623,4.30664 -3.65559,4.56044 0.39969,0.24703 0.0204,0.62156 -1.10536,1.09193 -0.94243,0.39379 -2.44986,1.55479 -3.34966,2.57968 -1.13064,1.28773 -1.89356,1.76463 -2.46962,1.54358 -0.45841,-0.17599 -0.67179,-0.15813 -0.47387,0.0398 0.19787,0.19787 -0.008,0.76649 -0.45786,1.26349 -0.67862,0.7498 -0.7072,1.03623 -0.16949,1.68413 0.51729,0.62333 0.73194,0.65018 1.06556,0.13384 0.33591,-0.51982 0.51001,-0.50395 0.88625,0.0811 0.58165,0.9046 0.21998,1.21789 10.75232,-9.30537 L 218.61043,9.2633 212.70278,3.5081 C 210.72246,1.5788 210.07861,1.04589 208.93557,3e-4 h -1.8154 c 0.0394,0.20017 0.1602,0.42504 0.1602,0.57826 0,0.57802 -0.45086,0.31917 -1.40095,-0.57826 z m 10.31823,0 c 0.1099,0.10617 0.0907,0.0962 0.20154,0.20309 l 8.95863,8.64082 V 7.41072 c -0.29737,-0.22091 -0.89629,-0.72217 -1.85209,-1.60455 -1.91299,-1.76602 -2.72727,-3.56619 -1.61282,-3.56619 0.48372,0 2.34259,2.40244 3.36931,4.35477 0.0683,0.12984 0.0393,0.11979 0.0956,0.23616 V 4.4848 C 222.92486,3.74143 222.97724,3.71348 222.12649,2.88955 221.02391,1.82172 220.35592,1.11588 219.22331,3.2e-4 h -2.47117 c -0.32091,0.22452 -0.69574,0.24197 -1.09502,0 z M 99.487469,0.3357 97.026119,2.65856 c -1.35378,1.2777 -2.68108,2.32337 -2.94969,2.32337 -0.46235,0 -3.95273,4.09098 -3.95273,4.63279 0,0.14024 0.93847,1.09592 2.08566,2.1239 l 2.08566,1.86914 0.96066,-1.22163 c 0.92454,-1.17536 0.92713,-1.25842 0.0677,-2.20813 -0.86815,-0.95929 -0.83185,-1.04873 1.29502,-3.21583 1.20337,-1.22616 2.38963,-2.22984 2.63601,-2.22984 0.24638,0 1.489451,1.07862 2.762621,2.39676 l 2.3151,2.39675 -2.35076,2.14457 -2.350761,2.14406 -1.37563,-1.00149 -1.37511,-1.00201 -0.82682,1.32188 c -0.81516,1.30234 -0.79795,1.35185 1.20613,3.4339 l 2.03347,2.11305 3.516581,-3.47834 c 1.93418,-1.91304 4.03381,-3.83845 4.66586,-4.27881 0.63199,-0.44036 1.08096,-1.0608 0.99736,-1.37872 -0.0837,-0.31787 -1.33224,-1.67565 -2.77451,-3.01687 -2.49404,-2.31941 -2.6677,-2.39729 -3.55276,-1.59629 -0.85649,0.77488 -0.95527,0.77691 -1.24333,0.0264 -0.21457,-0.55921 0.0115,-0.90015 0.71934,-1.08521 0.97788,-0.25575 0.94868,-0.35608 -0.55088,-1.90324 z M 85.281099,0.869 c -0.23261,-0.0356 -0.57458,2.2e-4 -1.01234,0.11007 -1.51382,0.37994 -2.62052,1.14851 -2.62052,1.82005 0,0.62945 0.69703,0.53851 1.42111,-0.18552 0.34274,-0.34275 0.83608,-0.65135 1.09657,-0.68575 0.26049,-0.0343 0.69784,-0.0901 0.97203,-0.12454 0.2742,-0.0343 0.49868,-0.31099 0.49868,-0.61495 0,-0.17678 -0.12293,-0.28379 -0.35553,-0.31936 z m -6.668327,0.006 c 0.0201,0.029 -0.1713,0.19149 -0.5612,0.50747 -0.6324,0.5125 -0.70958,0.83865 -0.29559,1.25263 0.41399,0.41399 0.39341,0.75992 -0.0786,1.3286 -0.73629,0.8872 -0.99279,0.92533 -1.99161,0.29353 -0.62068,-0.3926 -0.58503,-0.61891 0.24339,-1.53428 0.53444,-0.59052 1.42313,-1.28946 1.97456,-1.55339 0.45718,-0.21881 0.68893,-0.32353 0.709,-0.29456 z m -53.81532,0.67645 -2.3244,2.21382 c -5.2904,5.03878 -5.42729,5.32003 -3.5972,7.41609 1.42018,1.62663 1.48999,1.64882 2.45256,0.77773 0.77134,-0.69806 0.86307,-1.04979 0.41548,-1.58905 -0.45367,-0.54665 -0.21698,-1.08115 1.12345,-2.53628 0.93406,-1.01398 1.76222,-1.9471 1.8402,-2.07378 0.078,-0.12673 1.07492,0.70286 2.21588,1.84382 l 2.07481,2.0748 -2.04639,2.06655 c -1.98279,2.00263 -2.06329,2.03354 -2.60759,1.01647 -0.70533,-1.31808 -1.11439,-1.32074 -1.93115,-0.0129 -0.56534,0.90525 -0.48258,1.25292 0.65319,2.74195 v 5.2e-4 c 0.71536,0.9379 1.59588,1.70532 1.95647,1.70532 0.94528,0 7.7594,-7.43566 7.45639,-8.13645 -0.13989,-0.32356 -0.93759,-1.1307 -1.7725,-1.79421 -1.25771,-0.99962 -1.67888,-1.1058 -2.45825,-0.61908 -0.8512,0.53159 -0.94051,0.42927 -0.94051,-1.07487 0,-1.13153 -0.40082,-2.03847 -1.25522,-2.84117 z M 170.10124,1.75764 c 0.29494,0.009 0.12125,0.33036 -0.38602,0.71469 -0.50731,0.38432 -0.78996,0.91218 -0.62838,1.17357 v 5.1e-4 c 0.16152,0.26139 -0.0207,0.73564 -0.40463,1.0542 -0.51314,0.42577 -0.78955,0.43113 -1.04386,0.0196 -0.37794,-0.61151 1.59793,-2.98803 2.46289,-2.96261 z m 10.16269,0.49041 c 0.64192,-0.004 1.01464,0.21289 0.84284,0.49093 -0.37051,0.59949 -0.3188,0.59949 -1.24643,0 -0.60163,-0.38881 -0.52249,-0.48493 0.40359,-0.49093 z m 4.59042,0.12971 c -1.10352,-0.0831 -2.7293,1.58195 -2.27015,2.32492 0.42152,0.682 2.05337,-0.14481 2.71095,-1.37356 0.36902,-0.68953 0.27281,-0.89762 -0.4408,-0.95136 z m -49.36391,1.35805 c 0.2742,0 0.49867,0.32317 0.49867,0.71831 0,0.39509 -0.22447,0.85684 -0.49867,1.02629 -0.2742,0.16945 -0.49816,-0.15371 -0.49816,-0.7183 0,-0.56455 0.22396,-1.0263 0.49816,-1.0263 z m 56.72005,0.11886 c -0.0879,-0.0227 -0.15644,-0.0151 -0.19844,0.0269 -0.168,0.16801 0.0578,0.66865 0.50178,1.1126 1.10522,1.10521 1.02193,1.58136 -0.52813,3.0179 l -1.33532,1.23765 2.18694,2.22829 c 1.20287,1.22561 2.32196,2.2288 2.48667,2.2288 0.16468,0 0.73481,-0.32011 1.26711,-0.71107 0.94354,-0.69297 0.9334,-0.74616 -0.39688,-2.13888 L 194.82997,9.428 195.83869,8.41928 c 0.90544,-0.90545 0.93877,-1.14413 0.32401,-2.32906 -0.5131,-0.989 -0.82752,-1.17752 -1.25367,-0.75137 -0.42613,0.42615 -0.82282,0.27648 -1.58026,-0.59687 -0.41709,-0.48091 -0.8547,-0.81921 -1.11828,-0.88728 z m -66.90858,0.16226 c 0.51245,-0.0678 1.57638,0.63602 1.88877,1.45005 0.16751,0.43652 0.0219,0.76171 -0.34054,0.76171 -0.82733,0 -1.82883,-1.02009 -1.82883,-1.86242 0,-0.21851 0.10979,-0.32674 0.2806,-0.34934 z M 46.752182,5.64474 c 0.60874,-0.12371 1.63691,0.89964 1.86811,1.99006 0.17099,0.80644 -0.0739,0.74264 -1.44074,-0.37414 -0.81806,-0.66844 -1.01904,-1.12239 -0.65939,-1.48931 0.0663,-0.0676 0.14506,-0.10893 0.23202,-0.12661 z m 26.75599,0.28784 c 0.16475,-8.5e-4 0.29708,0.10847 0.43253,0.32763 0.19663,0.31817 0.0482,0.77403 -0.32969,1.01337 v 5.2e-4 c -1.44262,0.91377 -2.04552,0.082 -0.73122,-1.00872 0.26649,-0.22126 0.46363,-0.33195 0.62838,-0.3328 z m 21.519617,0.0481 c 0.0938,-0.003 0.20368,0.0191 0.33021,0.0677 0.4113,0.15783 0.74828,0.46299 0.74828,0.67851 0,0.21551 -0.33698,0.52119 -0.74828,0.67902 -0.50611,0.19424 -0.74776,-0.0254 -0.74776,-0.67902 0,-0.49008 0.13606,-0.73574 0.41755,-0.74621 z M 43.431462,6.22821 c -0.54985,0 -0.58712,0.21899 -0.17054,0.99735 0.54934,1.0265 1.08395,1.24254 1.65727,0.66921 0.45397,-0.45401 -0.6276,-1.66656 -1.48673,-1.66656 z m 56.164527,2.49287 c -0.95805,0 -1.35176,0.97476 -0.66921,1.65726 0.37739,0.37745 1.666041,-0.56578 1.666041,-1.21956 0,-0.24059 -0.44844,-0.4377 -0.996831,-0.4377 z m 41.158721,0 c 0.12096,0 0.21963,0.22448 0.21963,0.49868 0,0.27419 -0.23727,0.49868 -0.52762,0.49868 -0.29036,0 -0.38959,-0.22449 -0.22014,-0.49868 0.16945,-0.2742 0.40724,-0.49868 0.52813,-0.49868 z m 58.97108,0.12816 c -0.30682,0.0438 -0.65261,0.31344 -0.80667,0.77566 -0.10852,0.3256 0.15805,0.5917 0.59221,0.5917 0.43415,0 0.7891,-0.35492 0.7891,-0.7891 0,-0.44019 -0.26781,-0.6221 -0.57464,-0.57826 z M 60.624722,8.95621 c 0.42247,0.17483 0.70456,0.87829 0.27337,1.19166 -0.24075,0.17498 -0.50614,0.63662 -0.59014,1.02577 -0.12294,0.56929 -0.009,0.588 0.58291,0.0966 0.60273,-0.50133 0.71295,-0.45428 0.60771,0.26252 -0.13954,0.95101 -0.89792,1.40012 -1.44332,0.85472 -0.50727,-0.50726 -0.41579,-3.06363 0.12144,-3.39566 0.15076,-0.0932 0.30721,-0.0939 0.44803,-0.0357 z m 163.048448,0.78755 -1.85415,1.75596 c -1.2785,1.21076 -2.07137,2.204 -1.76217,2.204 0.30913,10e-4 0.841,-0.33388 1.18236,-0.74517 0.34135,-0.4113 0.9366,-0.74776 1.32291,-0.74776 0.38631,0 0.83175,0.33646 0.98961,0.74776 0.0262,0.0683 0.087,0.0611 0.12144,0.12402 z m -152.277008,0.6382 c 0.38268,0.0212 0.77979,0.50701 0.77979,1.11053 0,0.39509 -0.2001,0.7183 -0.44493,0.7183 -0.55028,0 -1.08617,-1.29353 -0.69711,-1.68258 0.10909,-0.1091 0.23469,-0.15332 0.36225,-0.14625 z m 6.90449,0.0703 c -0.0461,-0.0194 -0.1024,-0.0105 -0.16795,0.03 -0.25984,0.16058 -0.47284,0.76465 -0.47284,1.34256 0,1.27277 0.45061,0.93278 0.73742,-0.55656 0.0864,-0.44861 0.0417,-0.75793 -0.0966,-0.81597 z m -30.23382,1.41387 c 0.13637,-0.002 0.25675,0.0669 0.34985,0.21756 0.31204,0.50487 -0.5637,1.6219 -2.35644,3.0055 -0.79099,0.61051 -1.6192,1.11001 -1.8402,1.11001 -0.86028,0 -1.03872,-1.13165 -0.29559,-1.87482 0.64002,-0.64003 0.92071,-0.66629 1.54667,-0.14677 0.64452,0.53489 0.83948,0.43741 1.24076,-0.61805 0.3932,-1.03418 0.94585,-1.68617 1.35495,-1.69343 z m 169.864568,0.0574 c -0.49891,-0.0338 -0.91861,0.27678 -0.86713,0.95808 0.12927,1.71124 0.19948,1.87274 0.68523,1.57251 0.27419,-0.16945 0.49868,-0.10648 0.49868,0.14005 0,0.24652 -1.94449,2.29877 -4.32067,4.56044 -3.11138,2.96137 -4.13688,4.22547 -3.66593,4.51652 0.3598,0.2223 0.51516,0.76514 0.34572,1.20665 -0.32691,0.8521 -1.3433,0.87615 -1.94149,0.046 -0.21227,-0.29459 -1.02798,0.17396 -1.99419,1.14566 -0.89922,0.9043 -1.26511,1.50619 -0.81339,1.33739 0.45585,-0.1704 1.12126,0.032 1.49552,0.45527 0.37085,0.41942 0.89887,0.7703 1.17306,0.7798 0.68259,0.0233 14.33781,-13.47656 13.98674,-13.82758 -0.15446,-0.15445 -0.7851,0.17768 -1.40095,0.73794 -0.6159,0.56025 -1.4003,0.91619 -1.74305,0.79116 -0.36817,-0.13436 -0.6227,0.18561 -0.6227,0.78187 0,1.14145 -0.74249,1.7828 -1.51257,1.30689 -0.30701,-0.18979 0.0957,-1.01431 0.99684,-2.0407 1.72868,-1.96883 1.658,-1.73987 1.0418,-3.36052 -0.26452,-0.69576 -0.84261,-1.07362 -1.34152,-1.10742 z M 85.761169,12.2186 c 0.45282,-0.009 0.46382,0.17496 0.0713,1.19786 -0.35321,0.92045 -0.98987,1.02186 -1.47639,0.23461 -0.31952,-0.51693 0.5614,-1.41552 1.40508,-1.43247 z m 50.127691,0.36949 0.61185,1.14308 c 0.51933,0.9704 0.4748,1.24302 -0.29455,1.80557 -1.18522,0.86666 -1.67744,0.83628 -2.04691,-0.1266 -0.17543,-0.45706 0.12512,-1.21705 0.71365,-1.80558 z m -98.331978,0.12144 c 0.42724,0 0.63867,0.22448 0.46922,0.49867 -0.16946,0.2742 -0.51922,0.49817 -0.77721,0.49817 -0.25805,0 -0.46922,-0.22397 -0.46922,-0.49817 0,-0.27419 0.34976,-0.49867 0.77721,-0.49867 z m 19.36884,0.0894 c 0.2327,0.0783 0.29393,0.45544 0.20774,1.18856 -0.0896,0.76276 -0.4604,1.48495 -0.82424,1.60455 -0.46614,0.1532 -0.61359,-0.19195 -0.49867,-1.16944 0.0896,-0.76277 0.46092,-1.48495 0.82475,-1.60455 0.11654,-0.0383 0.21286,-0.0452 0.29042,-0.0191 z m 23.67763,0.063 c -0.78766,0.21199 -1.47419,1.05282 -1.19941,1.76889 0.24054,0.6268 0.1252,0.61274 -0.63976,-0.0796 -1.43739,-1.30084 -2.27509,-1.07487 -1.3348,0.36018 0.6649,1.01478 0.68666,1.37345 0.13643,2.27376 -0.56729,0.92818 -0.527,1.16284 0.3085,1.78232 0.83735,0.62078 1.06919,0.61728 1.78439,-0.03 0.45203,-0.4091 1.11948,-0.74414 1.483117,-0.74414 0.48946,0 0.44699,-0.23665 -0.16382,-0.91157 -0.875777,-0.96771 -1.068967,-1.61944 -0.451127,-1.52187 1.156907,0.18267 1.620047,-0.19547 1.620047,-1.32137 0,-0.69411 -0.33917,-1.39214 -0.75396,-1.55132 -0.25309,-0.0971 -0.527057,-0.096 -0.789607,-0.0253 z m -15.72721,0.56379 c 0.52889,-0.0679 1.28183,0.5289 1.82986,1.55288 0.35908,0.67053 0.5159,1.35531 0.34934,1.52187 -0.4459,0.44589 -2.96041,-2.2216 -2.61741,-2.77657 0.11067,-0.17908 0.26192,-0.27554 0.43821,-0.29818 z m 91.383568,0.5395 c 0.17578,0.0181 0.32158,0.0825 0.39739,0.20516 0.14283,0.23102 -0.18644,0.5364 -0.73174,0.67903 -0.54535,0.14258 -0.99167,0.0802 -0.99167,-0.13901 0,-0.43912 0.7987,-0.7995 1.32602,-0.74518 z M 3.76773,14.33833 c 0.071,0.0606 0.0978,0.30108 0.10077,0.73897 0.008,1.15312 -0.24505,1.42369 -0.67748,0.72399 -0.13521,-0.21871 -0.04,-0.72315 0.21187,-1.12138 0.1788,-0.28262 0.29388,-0.4022 0.36484,-0.34158 z m 176.28795,0.50953 c -0.18512,-0.009 -0.30538,0.0892 -0.40153,0.26561 -0.25077,0.46011 -0.67344,0.98017 -0.93896,1.15601 -0.28915,0.19144 -0.15277,0.79169 0.34003,1.49603 1.28997,1.84365 6.48018,6.08652 6.68693,5.46633 0.29603,-0.8882 1.09812,-0.0998 1.09812,1.07952 0,0.59037 0.9442,2.03495 2.09807,3.21066 1.15387,1.17575 2.28086,2.13785 2.50475,2.13785 0.2239,0 0.63051,-0.58733 0.90331,-1.30483 0.57042,-1.5003 -0.0272,-2.25004 -7.77059,-9.75186 -2.82552,-2.73735 -3.9648,-3.7285 -4.52013,-3.75532 z M 21.169772,14.96 c -0.18119,-0.001 -0.39955,0.0823 -0.63666,0.27905 -0.38692,0.32106 -0.70331,0.89251 -0.70331,1.2702 v 5.2e-4 c 0,0.89543 0.71745,0.8765 1.47742,-0.0393 0.61594,-0.74212 0.40609,-1.50679 -0.13745,-1.5105 z m 28.86645,0.42374 c -0.39943,-10e-4 -0.77786,0.4368 -0.52245,0.85008 0.15774,0.25525 0.49803,0.46405 0.75603,0.46405 0.53598,0 0.62439,-0.67579 0.15038,-1.1498 -0.11509,-0.11508 -0.25081,-0.16398 -0.38396,-0.16433 z m 173.636948,0.2279 c -0.24742,0.36495 -0.36302,0.81397 -0.13746,1.18907 0.13294,0.22105 0.15743,0.30447 0.13746,0.33951 z M 33.712152,15.82868 c 0.30683,-0.0438 0.57516,0.13805 0.57516,0.57826 0,0.43412 -0.35549,0.78909 -0.78961,0.78909 -0.43418,0 -0.70023,-0.2661 -0.5917,-0.59169 0.15405,-0.4622 0.49933,-0.73183 0.80615,-0.77566 z m 20.26698,0.22634 c 0.64926,-0.0223 0.18912,1.17529 -1.29759,2.86856 -1.39337,1.58695 -2.4412,2.22577 -2.4412,1.48828 0,-0.8535 1.62354,-3.1848 2.71663,-3.90105 0.466,-0.30534 0.80574,-0.44836 1.02216,-0.45579 z m 30.090157,0.14418 c -1.46262,0 -1.48552,0.8413 -0.0486,1.80144 0.75169,0.50223 1.53481,0.86304 1.74046,0.80202 0.20564,-0.061 0.37414,0.10584 0.37414,0.37052 0,0.26462 0.69543,1.27341 1.54564,2.24172 0.85026,0.96836 1.75881,1.62895 2.019,1.46813 0.26013,-0.16078 -0.0229,-0.72191 -0.62891,-1.24747 -0.60597,-0.52551 -0.94883,-1.10836 -0.76222,-1.29501 0.50028,-0.50029 -3.22711,-4.14135 -4.23954,-4.14135 z m 138.681971,0.40824 c -0.42087,-0.10301 -0.85964,0.21819 -1.72186,1.13171 -1.56332,1.6564 -1.46464,2.07481 0.49093,2.07481 1.19269,0 0.88278,0.439 -3.21944,4.55838 -2.49677,2.5072 -4.53978,4.7227 -4.53978,4.92321 0,0.20047 0.1685,0.36157 0.37414,0.35657 0.66207,-0.0136 1.70772,-0.83849 1.62522,-1.28209 -0.044,-0.23671 0.16153,-0.51049 0.45631,-0.60875 0.29478,-0.0983 0.53588,0.28867 0.53588,0.8599 0,0.57127 0.24989,1.03869 0.55552,1.03869 0.30571,0 2.26902,-1.63091 4.36253,-3.62406 0.82976,-0.78998 1.22626,-1.11253 2.00246,-1.8278 v -2.56677 c -0.25425,0.0192 -0.43441,-0.0509 -0.4191,-0.33176 0.006,-0.10885 0.2333,-0.40685 0.4191,-0.66921 v -1.79162 c -0.48923,0.31772 -0.93845,0.39334 -0.93845,-0.0987 0,-0.22761 0.42114,-0.51307 0.93845,-0.67025 v -0.9002 c -0.0603,-0.003 -0.20971,-0.10562 -0.49196,-0.33383 -0.15132,-0.12237 -0.28966,-0.20389 -0.42995,-0.23823 z m -207.966118,0.0904 c -0.27419,0 -0.35962,0.22449 -0.19017,0.49868 0.16946,0.2742 0.53248,0.49868 0.80667,0.49868 0.2742,0 0.35962,-0.22448 0.19017,-0.49868 -0.16945,-0.27419 -0.53247,-0.49868 -0.80667,-0.49868 z m 115.644618,0 c 0.1371,0 -0.27743,0.56095 -0.92139,1.24644 -0.64396,0.68549 -1.28348,1.24644 -1.42058,1.24644 -0.1371,0 0.27795,-0.56095 0.92191,-1.24644 0.64397,-0.68549 1.28296,-1.24644 1.42006,-1.24644 z m -88.569778,0.44545 c 0.0753,-0.007 0.12921,0.0118 0.15864,0.0594 0.47372,0.76646 -1.22738,3.05651 -2.86907,3.8623 -0.70394,0.34549 -1.74173,1.41087 -2.30632,2.36782 -1.10526,1.8732 -2.05964,2.27636 -2.05414,0.86764 0.004,-1.15223 5.94085,-7.0521 7.07089,-7.15718 z m 105.193578,0.55139 c 0.26019,0 0.13688,0.33698 -0.27441,0.74828 -0.4113,0.41129 -0.90374,0.74776 -1.09399,0.74776 -0.19024,0 -0.0664,-0.33647 0.27492,-0.74776 0.34135,-0.4113 0.83325,-0.74828 1.09348,-0.74828 z m 35.96421,0.99736 c 1.03472,0 1.37585,0.58994 0.76584,1.32498 -0.802,0.96637 -1.4304,0.82214 -1.4304,-0.32814 0,-0.5484 0.29898,-0.99684 0.66456,-0.99684 z m 31.86317,0.6382 c 0.20454,-0.0487 0.42327,-0.0372 0.64285,0.047 0.81821,0.31393 0.81675,0.38713 -0.0269,1.3193 h -5.1e-4 c -1.01797,1.12486 -1.73845,1.27636 -1.72755,0.36329 0.011,-0.89487 0.49845,-1.58346 1.11208,-1.72961 z m -132.389341,0.0605 c -0.23396,0.0737 -0.48154,0.22161 -0.68626,0.42633 -0.66032,0.66032 -0.59862,0.74466 0.54622,0.74466 1.33549,0 1.69881,-0.56168 0.74466,-1.15135 -0.15024,-0.0929 -0.37065,-0.0934 -0.60462,-0.0196 z m 23.585131,0.29817 c 0.27419,0 0.49868,0.21123 0.49868,0.46923 0,0.25804 -0.22449,0.60776 -0.49868,0.77721 -0.2742,0.1695 -0.49868,-0.0418 -0.49868,-0.46922 0,-0.4275 0.22448,-0.77722 0.49868,-0.77722 z m -45.664398,0.0279 -4.46278,4.56717 c -2.45445,2.51194 -4.03106,4.24392 -3.50366,3.84937 0.88421,-0.66146 0.9363,-0.62974 0.66973,0.40463 -0.24259,0.94154 -0.0886,1.1219 0.95911,1.1219 0.86936,0 1.95213,-0.77832 3.56774,-2.56419 2.36373,-2.61274 3.38897,-4.2107 1.92805,-3.00498 -0.51723,0.42685 -1.08222,0.50609 -1.58853,0.22272 -0.67881,-0.37988 -0.61454,-0.60106 0.47232,-1.62212 0.69207,-0.65014 1.25832,-0.91835 1.25832,-0.59635 0,0.68799 0.95756,0.75291 1.93839,0.13178 0.56983,-0.36085 0.5216,-0.62046 -0.27337,-1.47381 z m 99.394448,0.30076 c 0.2074,0.0978 0.60389,0.43913 1.22732,1.04231 0.921,0.89114 1.96258,1.62058 2.3151,1.62058 0.35255,0 0.55243,0.26609 0.4439,0.59169 -0.10853,0.3256 -0.41817,0.66599 -0.68833,0.75603 -0.60767,0.20255 -2.91376,-2.23883 -3.39256,-3.59151 -0.13139,-0.37119 -0.11283,-0.51689 0.0946,-0.4191 z m -8.78758,0.30282 c -0.17772,-0.0641 -0.62573,0.0753 -0.9958,0.30955 -0.56484,0.35755 -0.56484,0.62889 0,1.69033 1.12615,2.1163 6.00887,6.9848 6.38876,6.37016 0.24478,-0.39609 0.76324,-0.33726 1.8004,0.2036 1.66308,0.86726 2.20504,0.94936 2.20504,0.33486 0,-0.40616 -8.70677,-8.65908 -9.3984,-8.9085 z m 23.80527,0.33745 c 0.10397,-0.0108 0.22523,0.0366 0.35192,0.1633 0.16479,0.16641 0.20663,0.58352 0.0915,0.92914 -0.1689,0.50861 -0.28635,0.50821 -0.60048,0 -0.31183,-0.50458 -0.15481,-1.06011 0.1571,-1.09244 z M 8.559682,20.68624 c 0.32949,0 3.29334,2.87175 3.29334,3.19102 0,0.58863 -0.77073,0.24695 -2.11873,-0.93948 -1.17944,-1.03596 -1.81124,-2.25154 -1.17461,-2.25154 z m 71.77598,0.14159 c -0.11295,-0.0157 -0.18293,0.0305 -0.18293,0.14211 0,0.2233 1.953097,2.27734 4.340297,4.56458 3.79967,3.64063 5.84067,4.8885 5.61413,3.43287 -0.0379,-0.24353 0.23068,-0.64048 0.59686,-0.88212 0.49929,-0.32948 -0.17661,-1.24711 -2.70371,-3.67006 -1.85332,-1.77694 -3.60544,-3.23081 -3.8933,-3.23081 -0.28776,0 -0.40491,0.19229 -0.25993,0.42685 0.34374,0.55617 -2.26121,0.0858 -3.071127,-0.55449 -0.17138,-0.1355 -0.32734,-0.21321 -0.44029,-0.22893 z M 0,21.05263 v 4.82554 c 0.0508,-0.28293 0.1602,-0.44414 0.16795,-0.83974 0.0167,-0.85115 0.32828,-1.64697 0.69246,-1.76837 0.43433,-0.14477 0.52567,-4.1e-4 0.26614,0.41962 -0.26712,0.43218 -0.19753,0.51802 0.21342,0.26406 0.73385,-0.45357 1.65614,0.65413 3.09128,3.71192 l 1.02733,2.19005 c -0.14108,-0.0172 -0.24868,-0.0563 -0.40721,-0.0563 -0.96577,0 -2.06952,0.80006 -4.13566,2.99826 L 0,33.77178 v 2.56521 c 1.20858,-0.0438 1.30034,0.022 0.52762,0.60823 C 0.32812,37.09656 0.18711,37.08048 0,37.18035 v 0.8816 h 0.52141 c 1.28944,-1.26177 1.866,-2.14123 1.48518,-2.27273 -0.95684,-0.33038 -0.739,-1.06225 0.2496,-0.83871 0.51943,0.11746 1.77994,-0.63825 3.11557,-1.8681 1.708352,-1.57304 1.976102,-1.99928 1.121902,-1.78645 -0.61694,0.15375 -1.121902,0.076 -1.121902,-0.1726 0,-0.24852 0.22449,-0.45165 0.498682,-0.45165 0.2742,0 0.49868,-0.19626 0.49868,-0.43615 0,-0.18199 -0.38728,-0.30898 -0.868172,-0.37414 l 0.482152,-1.36891 c 0.4759,-1.35059 0.30549,-1.59671 -3.670062,-5.29063 z m 113.37654,0.31781 c 0.13886,-0.0103 0.26223,0.0451 0.33848,0.16846 0.14996,0.24264 0.0911,0.73509 -0.13074,1.09399 -0.30641,0.49585 -0.49153,0.50959 -0.77101,0.0574 -0.20231,-0.32734 -0.14345,-0.81979 0.13074,-1.09399 0.13944,-0.13946 0.29367,-0.21549 0.43253,-0.22582 z m -41.325128,0.0491 c 0.47985,0.0807 0.81631,0.39753 0.74776,0.70383 -0.0686,0.30635 0.15594,0.50056 0.49868,0.43201 0.34275,-0.0685 0.56723,0.15594 0.49868,0.49868 -0.0685,0.34275 0.15541,0.56723 0.49816,0.49868 0.34274,-0.0686 0.62322,0.20843 0.62322,0.61598 0,1.2804 -1.5871,1.11286 -2.68563,-0.2837 -1.28089,-1.62838 -1.35672,-2.66326 -0.18087,-2.46548 z M 139.18065,21.588 c 0.1488,0.10608 0.0714,0.54613 -0.29197,1.34359 -0.30396,0.66715 -0.72627,1.10573 -0.93845,0.97462 -0.21213,-0.13112 -0.82868,0.32472 -1.36994,1.01285 -0.54127,0.68809 -1.1362,1.25109 -1.3224,1.25109 -0.1862,0 0.51912,-1.09572 1.56735,-2.43499 1.23084,-1.57249 2.10742,-2.32395 2.35541,-2.14716 z m -89.909238,0.36329 c 0.0736,0.0327 0.14332,0.10416 0.21084,0.21342 0.22564,0.36503 -0.0505,1.04724 -0.67696,1.6738 -1.18852,1.18852 -1.35413,0.68639 -0.36329,-1.10122 0.35061,-0.63254 0.60853,-0.88401 0.82941,-0.786 z m 13.55421,0.54622 c -0.26799,0.10033 -0.14556,0.69678 0.50126,1.43144 0.34275,0.38931 0.79171,0.7161 0.99736,0.72657 0.68988,0.035 0.38273,-0.81561 -0.62322,-1.726 -0.41313,-0.37388 -0.71461,-0.49221 -0.8754,-0.43201 z m 23.710177,1.22628 c 0.32191,0.0545 0.66713,0.22375 0.9834,0.54002 0.4284,0.4282 0.43869,0.7645 0.0388,1.24644 -0.70433,0.84866 -1.15722,0.83281 -1.90324,-0.0661 -0.84304,-1.01579 -0.0846,-1.88368 0.88108,-1.72031 z m -25.210347,0.64492 c -0.0632,-0.004 -0.0992,0.0288 -0.10128,0.10387 -0.009,0.30027 0.43478,0.95372 0.98547,1.45211 0.9216,0.83406 0.94045,0.99869 0.23771,2.07119 -0.86651,1.32253 -0.47828,1.53373 0.75964,0.41341 0.74437,-0.67362 0.91926,-0.65389 1.68362,0.19069 0.83475,0.9224 4.79299,1.44344 4.79299,0.63097 0,-0.20136 -0.91151,-1.25289 -2.0252,-2.33681 -1.81089,-1.76239 -2.07665,-1.87839 -2.51716,-1.09812 -0.6821,1.20821 -1.29199,1.0953 -2.69492,-0.49868 -0.49775,-0.56553 -0.93141,-0.91552 -1.12087,-0.92863 z m 31.378447,0.60617 c -0.0812,-0.0177 -0.1532,-0.0106 -0.21136,0.0253 -0.23262,0.14378 -0.16039,0.57793 0.16072,0.9648 0.87466,1.05381 1.55707,0.84793 0.86454,-0.26097 -0.24853,-0.39798 -0.57043,-0.67591 -0.8139,-0.72915 z m 110.948271,0.47801 c -0.19786,-0.008 -0.38952,0.0485 -0.53692,0.19585 -0.23889,0.23885 -0.28396,0.67861 -0.0997,0.97668 0.43128,0.6976 1.12152,0.69224 1.55701,-0.0124 0.32231,-0.52152 -0.32679,-1.13489 -0.92035,-1.16013 z m -175.448728,0.001 c -0.23425,-0.0242 -0.43419,0.0554 -0.61546,0.23667 -0.36254,0.36254 -0.30858,0.65213 0.17725,0.9524 0.38412,0.23741 1.03054,0.30467 1.4366,0.14883 0.61655,-0.23656 0.58731,-0.3939 -0.17725,-0.95291 -0.31844,-0.23287 -0.58688,-0.36081 -0.82114,-0.38499 z M 1.66036,26.0575 c -0.0936,-0.0207 -0.1583,0.007 -0.18552,0.0884 -0.10888,0.32664 0.31386,1.13864 0.93948,1.80454 1.7415,1.85382 2.18495,1.43888 0.63459,-0.59376 C 2.48113,26.61231 1.94104,26.11949 1.66036,26.05753 Z m 114.41679,0.11265 c -0.29035,0 -0.52813,0.22449 -0.52813,0.49868 0,0.2742 0.0987,0.49816 0.21962,0.49816 0.1209,0 0.35868,-0.22396 0.52814,-0.49816 0.16945,-0.27419 0.0708,-0.49868 -0.21963,-0.49868 z m 50.95038,1.67277 c 0.0274,-0.0648 0.20616,-0.0171 0.54829,0.1142 0.45008,0.1727 0.81855,0.51425 0.81855,0.75913 0,0.64108 -0.28872,0.55088 -1.00666,-0.31419 -0.26343,-0.3174 -0.38757,-0.49437 -0.36018,-0.55914 z M 15.979392,28.16383 c 0.0492,0 0.21548,0.20779 0.53898,0.62322 0.19462,0.24994 0.43123,0.42501 0.68575,0.56275 l -0.98186,-0.0145 c 0.0103,-0.1511 -0.005,-0.33401 -0.0796,-0.54829 -0.14467,-0.41543 -0.21248,-0.62322 -0.16329,-0.62322 z M 181.00394,28.3509 c -0.0904,0.0399 -0.14625,0.13749 -0.14625,0.28267 0,0.2904 0.22448,0.52762 0.49868,0.52762 0.2742,0 0.49816,-0.0987 0.49816,-0.21963 0,-0.12094 -0.22396,-0.35863 -0.49816,-0.52813 -0.1371,-0.0847 -0.26207,-0.10238 -0.35243,-0.0625 z M 60.181852,28.66251 c -0.29039,0 -0.38959,0.22448 -0.22014,0.49868 0.16946,0.27419 0.40724,0.49867 0.52814,0.49867 0.12094,0 0.22014,-0.22448 0.22014,-0.49867 0,-0.2742 -0.23779,-0.49868 -0.52814,-0.49868 z m 17.43667,0.56017 c -0.1732,-0.007 -0.37041,0.0246 -0.55036,0.0966 -0.39768,0.15918 -0.27952,0.27734 0.30128,0.30127 0.52551,0.0216 0.81989,-0.0963 0.65422,-0.262 -0.0828,-0.0829 -0.23195,-0.12877 -0.40514,-0.1359 z m 35.597308,0.38396 -0.82217,1.2547 -0.82218,1.2547 6.03943,5.94589 h 4.28552 c -1.66735,-1.61835 -3.60975,-3.49345 -4.64726,-4.50876 z m -46.050938,0.0677 c -1.91633,0 -2.35228,0.2487 -4.46484,2.54661 l -2.34095,2.54662 -2.19263,-2.5461 c -1.20601,-1.4004 -2.36112,-2.54647 -2.56676,-2.54662 -0.20565,-10e-5 -0.84796,0.47381 -1.42731,1.05317 l -1.05316,1.05316 3.67057,3.7083 2.54662,2.57245 h 2.08101 l 0.40101,-0.47542 c 0.96108,-1.14026 1.27303,-1.94887 1.06763,-2.76727 -0.29064,-1.15791 0.46854,-1.62208 1.06764,-0.65267 0.40058,0.6481 1.57437,-0.18313 3.70313,-2.62258 l 1.63143,-1.86966 z m -27.72596,5.1e-4 8.38244,8.38709 h 1.56683 c -0.20792,-0.31271 -0.64337,-0.79866 -0.64337,-0.92656 0,-0.25974 0.0578,-0.41367 0.16484,-0.46819 0.25858,-0.13166 0.84969,0.45365 1.55598,1.39475 h 3.09025 c -0.61369,-0.58597 -0.96614,-0.91411 -1.55908,-1.4826 -7.01564,-6.72644 -7.27613,-6.90449 -10.09602,-6.90449 z m 19.27686,0 c -0.90933,0 -1.42665,0.20652 -1.24643,0.49816 0.16945,0.2742 0.7304,0.49868 1.24643,0.49868 0.51604,0 1.07647,-0.22448 1.24592,-0.49868 0.18022,-0.29164 -0.33658,-0.49816 -1.24592,-0.49816 z m 3.48971,0 c -0.54839,0 -0.99735,0.20996 -0.99735,0.46716 0,0.25715 0.44896,0.43412 0.99735,0.39274 0.5484,-0.0413 0.99684,-0.2518 0.99684,-0.46767 0,-0.21582 -0.44844,-0.39223 -0.99684,-0.39223 z m 58.208848,0 c -1.43272,0 -0.54114,1.0272 6.78047,8.38709 h 1.66088 c -0.99396,-1.1405 -1.8402,-2.23434 -1.8402,-2.62361 0,-0.4277 -0.27085,-0.77773 -0.60203,-0.77773 -0.81631,0 -4.38319,-3.53078 -4.38319,-4.33876 0,-0.39679 -0.62469,-0.64699 -1.61593,-0.64699 z m 21.77749,0 c -1.28623,0 -1.66857,0.24184 -1.91151,1.20975 -0.16701,0.6654 -0.65733,1.28233 -1.08986,1.37097 -0.8548,0.17514 -0.42068,0.7419 2.23449,2.91817 0.65892,0.54007 1.49981,0.98185 1.86913,0.98185 1.02435,0 0.80123,-2.22091 -0.32556,-3.24062 -0.5484,-0.4963 -0.99684,-1.12676 -0.99684,-1.40095 0,-0.2742 0.42058,-0.1176 0.93483,0.34778 0.88899,0.80454 0.94689,0.78421 1.17512,-0.40979 0.30227,-1.58137 0.0935,-1.77716 -1.8898,-1.77716 z m 9.04957,0 c -1.45294,0 -1.66073,0.14384 -1.43764,0.99684 0.30047,1.14918 1.02167,1.24546 2.26343,0.30283 1.28304,-0.974 1.07589,-1.29967 -0.82579,-1.29967 z m 55.2912,0 c -0.68549,0 -1.24643,0.18807 -1.24643,0.41755 0,0.19227 3.88364,4.04796 7.89977,7.96954 h 1.31413 c -0.0542,-0.092 -0.11338,-0.15297 -0.16588,-0.2527 -0.7433,-1.41211 -0.7224,-1.65313 0.14108,-1.65313 0.51156,0 1.44137,1.00847 2.0097,1.90583 h 1.39268 c -1.97528,-1.95988 -4.39473,-4.32008 -5.29632,-5.271 -3.02782,-3.19339 -3.80545,-3.67764 -3.80545,-2.36833 0,0.4113 -0.22449,0.74776 -0.49868,0.74776 -0.27419,0 -0.49868,-0.33646 -0.49868,-0.74776 0,-0.46528 -0.47037,-0.74776 -1.24592,-0.74776 z m 9.82111,0 c -1.1721,0 -0.39626,0.93993 6.3872,7.73597 0.35938,0.36004 0.34709,0.32414 0.67438,0.65112 h 0.25787 v -4.95991 c -0.94258,-0.73177 -1.57693,-1.02155 -1.27434,-0.23306 0.41687,1.08637 -0.81244,0.41755 -3.05976,-1.66449 -0.98741,-0.91482 -2.18744,-1.52963 -2.98535,-1.52963 z m -134.204211,5.2e-4 -3.117127,0.0124 -3.11712,0.0124 -7.70289,7.46879 -0.92087,0.89297 h 2.25464 c 0.13649,-0.14647 0.17386,-0.23379 0.38654,-0.41031 0.21552,-0.17885 0.4023,-0.2804 0.53537,-0.30075 0.13307,-0.0203 0.21239,0.0401 0.21239,0.18603 0,0.17218 -0.14922,0.35845 -0.34468,0.52503 h 3.02462 c 1.04547,-1.02761 1.14591,-1.22503 2.5833,-2.57193 z m -52.832947,0.0238 c -0.0659,0.0337 -0.0134,0.22809 0.12557,0.59893 0.21631,0.57721 0.0852,0.8723 -0.38757,0.8723 -0.39305,0 -0.96601,0.47021 -1.27331,1.04438 l -0.55862,1.04386 -1.11156,-1.04438 -1.11156,-1.04438 -4.57905,4.66948 c -1.13344,1.15576 -1.259,1.36445 -2.06086,2.22261 h 1.53531 c 0.0113,-0.2577 0.0653,-0.50643 0.24133,-0.786 0.66978,-1.06353 2.41402,-1.52555 2.05672,-0.54467 -0.13441,0.36892 -0.49719,0.61477 -0.80564,0.54622 -0.55669,-0.12371 -0.55356,0.35043 -0.2558,0.78445 h 1.29243 c 0.32364,-0.20906 0.668,-0.45148 1.00873,-0.7922 l 1.50326,-1.50327 2.23398,2.29547 h 4.95835 c -1.96176,-2.04449 -3.36025,-3.56546 -2.95124,-3.32435 0.89991,0.53059 1.31754,0.53852 2.11201,0.0424 1.32996,-0.83056 1.50276,-0.7869 1.50276,0.37879 0,0.55393 0.33232,0.99736 0.74775,0.99736 0.4113,0 0.75103,-0.28048 0.75603,-0.62322 0.004,-0.3356 1.28664,0.80899 2.85306,2.52904 h 1.65106 c -0.65938,-0.73881 -1.36974,-1.44243 -1.99006,-1.82366 -2.07143,-1.27307 -4.74827,-4.53695 -4.18373,-5.1015 0.49286,-0.49285 1.82306,0.67823 4.42867,3.89899 0.72154,0.89189 1.55016,1.47363 1.84175,1.29346 0.31618,-0.19543 0.38363,-0.0902 0.16692,0.26045 -0.19987,0.32336 -0.15264,0.52647 0.1049,0.45114 0.20134,-0.0589 0.7965,0.39604 1.50275,1.02112 h 1.35857 c -8.38037,-8.24649 -8.74615,-8.54393 -10.02161,-7.96282 -1.04763,0.4774 -1.48509,0.46976 -2.10736,-0.0357 -0.33382,-0.27116 -0.51806,-0.39802 -0.58394,-0.36432 z m 163.132158,0.001 c -1.70576,0.0233 -2.45934,0.59191 -8.59999,6.49108 -0.93692,0.90006 -1.15837,1.17999 -1.85726,1.87017 h 4.65192 c 0.86571,-0.70243 1.89217,-1.62984 3.31246,-3.04788 2.39922,-2.39548 4.36252,-4.57679 4.36252,-4.84725 0,-0.27046 -0.84142,-0.48008 -1.86965,-0.46612 z m -62.03446,0.0124 c -2.98725,0.0359 -3.0688,0.0681 -1.58026,0.62322 1.40224,0.52292 6.65644,4.9625 6.65644,5.62446 0,0.14478 -0.65185,-0.20131 -1.44901,-0.76894 -1.0247,-0.72967 -1.7622,-0.91626 -2.51664,-0.63717 -0.94246,0.34862 -0.656,0.76312 2.17557,3.50727 h 5.99137 c -0.44443,-0.12675 -1.9923,-1.42661 -3.64474,-3.09386 -2.52216,-2.5448 -3.0864,-3.39319 -2.81843,-4.23747 0.31792,-1.00176 0.17384,-1.0534 -2.8143,-1.01751 z m -31.067871,0.0129 -2.62155,2.57865 c -1.44187,1.4184 -2.54689,2.80312 -2.45566,3.07682 0.0912,0.2737 0.70996,0.63749 1.37511,0.80874 1.51895,0.39105 3.45302,-1.21268 3.45302,-2.8634 0,-0.63768 0.20924,-1.1591 0.46509,-1.1591 0.25585,0 0.445611,0.69277 0.42168,1.53944 -0.0341,1.1988 0.595761,2.09996 2.886121,4.35478 h 4.70101 z m 84.434641,0.009 c -0.32649,-0.10883 -1.17381,0.47731 -1.88309,1.30225 -1.33608,1.554 -3.03444,2.45655 -3.03444,1.61282 0,-0.26562 0.16849,-0.48298 0.37414,-0.48318 0.20565,-1.5e-4 0.4066,-0.56971 0.447,-1.26607 0.0708,-1.22589 -1.57402,0.21205 -8.83512,7.1608 h 1.72806 c 1.34298,-1.25034 2.04616,-1.84062 2.42879,-1.82262 0.24626,0.0116 0.38686,0.24556 0.54209,0.65009 0.14587,0.38012 0.0609,0.72349 -0.28887,1.17253 h 0.72553 c 4.29908,-4.2343 8.15101,-8.20825 7.79591,-8.32662 z m -27.38076,0.0253 c -1.39665,-0.222 -3.46077,1.21315 -3.46077,2.40606 0,1.19893 -3.31638,4.29831 -4.36097,4.07572 -0.45476,-0.0969 -0.18199,0.44494 0.67799,1.34565 0.19963,0.20907 0.34247,0.31521 0.51315,0.47387 h 2.22364 c 0.0634,-0.11616 0.12733,-0.17578 0.19171,-0.31832 0.27066,-0.5992 0.72168,-1.08934 1.00201,-1.08934 0.28033,0 0.78978,-0.44897 1.13223,-0.99736 0.36912,-0.59102 0.41792,-0.99684 0.11989,-0.99684 -0.9231,0 -0.51854,-0.92456 1.2423,-2.8391 1.60405,-1.74414 1.66196,-1.91043 0.71882,-2.06034 z m -65.713301,0.0336 c -0.54135,-0.0744 -1.00319,0.4505 -0.73742,1.14308 0.18989,0.49485 -0.0459,0.73174 -0.72812,0.73174 -0.55488,0 -1.10339,-0.28047 -1.21905,-0.62322 -0.21238,-0.62928 -3.47011,2.1595 -8.642877,7.01611 h 4.745437 c 5.06586,-5.05042 7.47887,-7.6246 7.12618,-7.97729 -0.174,-0.17396 -0.3637,-0.26556 -0.54415,-0.29037 z m 45.098021,0.56017 c -0.39943,-10e-4 -0.77787,0.4368 -0.52245,0.85008 0.15774,0.2552 0.49804,0.46405 0.75603,0.46405 0.53598,0 0.62439,-0.67527 0.15038,-1.14928 -0.11509,-0.11509 -0.25081,-0.1645 -0.38396,-0.16485 z m 64.0824,0.16692 -2.42621,2.19418 c -1.33418,1.20686 -3.31168,3.18167 -4.39457,4.38888 -0.1981,0.22085 -0.67281,0.67106 -0.94257,0.95756 h 4.5961 c 0.36304,-0.45068 0.60926,-0.83601 0.60926,-1.04386 0,-0.41105 0.52545,-1.09165 1.16789,-1.51257 0.7886,-0.51674 1.93528,0.30053 4.3248,2.55643 h 1.81953 c -0.63592,-0.75444 -0.79291,-1.1765 -0.22996,-1.59732 0.76844,-0.57436 0.59124,-0.89154 -1.8371,-3.28972 z m -94.03819,0.7307 c -0.16043,0.16043 0.27837,0.96929 0.97513,1.79731 0.69676,0.82807 1.26659,1.86606 1.26659,2.30632 0,0.44026 0.22892,0.80047 0.5085,0.80047 0.15993,0 1.04396,0.76573 2.26394,1.90582 h 2.31821 c -3.72514,-3.67102 -7.17799,-6.9643 -7.33237,-6.80992 z m 19.86597,0.41703 c -0.14532,-0.1371 0.016,0.36786 0.35863,1.1219 0.3426,0.75404 0.84576,1.37097 1.11776,1.37097 0.272,0 1.80626,1.34482 3.40962,2.98845 0.33501,0.34344 0.54552,0.60541 0.8232,0.91157 h 0.77928 c -2.99295,-2.95084 -6.38311,-6.29342 -6.48849,-6.39284 z m 74.1071,0 c 0.27419,0 0.49816,0.21118 0.49816,0.46922 0,0.258 -0.22397,0.60776 -0.49816,0.77722 -0.27419,0.16945 -0.49867,-0.0417 -0.49867,-0.46923 0,-0.42749 0.22448,-0.77721 0.49867,-0.77721 z m -42.03567,0.49816 c -0.0916,0 -0.7049,0.57359 -1.36323,1.27434 -0.65827,0.7007 -0.86084,1.14461 -0.4501,0.98702 0.64905,-0.24907 2.26266,-2.26136 1.81333,-2.26136 z m -65.390841,0.0289 c -0.41081,0.003 -0.90411,0.31256 -1.23352,0.92811 -0.37296,0.69686 -0.34396,1.01571 0.10697,1.17306 1.02006,0.3559 1.86552,-0.18152 1.86552,-1.18598 0,-0.61343 -0.32817,-0.9179 -0.73897,-0.91519 z m 55.363541,0.0977 c -0.0247,0.0675 -0.47023,0.62743 -0.9896,1.24437 -0.74203,0.88127 -0.78899,1.1219 -0.21911,1.1219 0.39898,0 0.98534,-0.25981 1.30276,-0.57723 0.43712,-0.43712 0.79389,-0.41057 1.47071,0.10955 0.49146,0.37765 0.35054,0.0775 -0.31316,-0.66714 -0.66371,-0.74462 -1.2267,-1.2989 -1.2516,-1.23145 z M 24.939562,32.9679 c 0.13021,0.0346 0.17295,0.11805 0.0961,0.24236 -0.1537,0.24862 -0.60278,0.45217 -0.99787,0.45217 -1.03188,0 -0.88503,-0.33897 0.27905,-0.64337 0.27437,-0.0718 0.49249,-0.0858 0.6227,-0.0512 z m 60.746157,0.17363 c 0.0632,0.002 0.12531,0.0307 0.18397,0.0894 0.15789,0.15789 0.0954,0.80389 -0.13849,1.43609 -0.3242,0.87648 -0.49314,0.97215 -0.7121,0.40152 -0.27233,-0.70964 0.22394,-1.94403 0.66662,-1.92701 z m 44.778151,0.58187 c -0.17319,-0.007 -0.37092,0.0246 -0.55087,0.0966 -0.39768,0.15914 -0.27953,0.27735 0.30127,0.30128 0.52551,0.0216 0.8199,-0.0964 0.65423,-0.262 -0.0828,-0.0829 -0.23144,-0.12878 -0.40463,-0.13591 z m 66.60782,0.45837 c 0.40827,-0.0547 0.73639,0.0734 0.73639,0.41703 0,0.69671 -1.18588,1.44412 -1.89032,1.19166 -0.49464,-0.17733 -0.50935,-0.393 -0.0636,-0.93017 0.32086,-0.38662 0.80924,-0.62381 1.2175,-0.67852 z M 93.515219,35.65662 c -0.19552,0 -1.39116,1.02877 -2.8975,2.4045 h 3.82974 c -0.22864,-0.11495 -0.33538,-0.48915 -0.33538,-1.15806 0,-0.68549 -0.26857,-1.24644 -0.59686,-1.24644 z m -4.01836,0.20361 c -0.12548,-0.12549 -0.51203,0.11382 -0.85886,0.53175 -0.39325,0.47381 -0.43135,0.76016 -0.10077,0.76016 0.60254,0 1.30537,-0.94618 0.95963,-1.29191 z m 28.480431,0.0858 c 0.24758,-0.15306 0.72728,0.0557 1.06609,0.46405 0.50093,0.60358 0.47044,0.74207 -0.1633,0.74207 -0.93081,0 -1.53917,-0.81283 -0.90279,-1.20612 z m 24.21248,0.51573 c -0.39036,-0.14981 -0.93391,0.16459 -1.22525,0.709 -0.24378,0.45548 -0.63595,0.78262 -0.9617,0.89038 h 2.94401 c 0.5682,-0.099 0.0831,-1.27702 -0.75706,-1.59938 z m 78.97864,0.19172 c -0.25469,0 -0.21273,0.4675 0.0935,1.03973 h 5.1e-4 c 0.13746,0.25686 0.21848,0.21908 0.34882,0.36793 h 0.50694 c -0.0811,-0.57165 -0.56826,-1.40766 -0.94981,-1.40766 z m -14.64665,0.49867 c -0.14183,0 -0.02,0.42054 0.22841,0.90899 h 0.74776 c -0.14649,-0.12126 -0.95241,-0.90899 -0.97617,-0.90899 z M 35.136352,37.26119 c -0.1181,-0.007 -0.17041,0.0721 -0.16019,0.23358 0.0121,0.19246 0.0681,0.37769 0.12661,0.56637 h 1.22008 c -0.57229,-0.48951 -0.99173,-0.78869 -1.1865,-0.79995 z m 60.496047,0.27285 c -0.44871,0.3817 -0.76135,0.52702 -1.00252,0.5271 h 0.49868 c 0.0119,-0.0187 0.54388,-0.56115 0.50384,-0.5271 z" />
  </g>
</svg>
